<?xml version="1.0" encoding="UTF-8"?>
<svg version="1.1" xmlns="http://www.w3.org/2000/svg" width="256" height="256">
<path d="M0 0 C6.45611015 2.75451807 11.50252092 9.34839649 15.9453125 14.60742188 C19.13507001 18.21351319 22.6040366 21.53856019 26.046875 24.90039062 C52.41956451 51.29183072 85.1403606 91.15758921 86.92578125 130.04492188 C86.67066205 157.34267659 77.30534608 182.39191954 57.890625 201.80664062 C46.98101376 211.60267113 34.59526612 218.73971996 20.17993164 221.87402344 C19.37503799 222.04992004 18.57014435 222.22581665 17.74085999 222.40704346 C17.13028244 222.53891052 16.5197049 222.67077759 15.890625 222.80664062 C16.97142334 222.85151611 18.05222168 222.8963916 19.16577148 222.94262695 C55.42533939 224.47569507 55.42533939 224.47569507 70.140625 226.24414062 C71.07575928 226.35411377 72.01089355 226.46408691 72.97436523 226.57739258 C91.97508876 229.05950803 91.97508876 229.05950803 95.890625 233.80664062 C94.890625 236.80664062 94.890625 236.80664062 92.828125 237.86914062 C70.80115559 244.89902448 46.3233685 244.96449655 23.3671875 244.97460938 C21.61005631 244.9778371 19.85292536 244.9812022 18.09579468 244.98469543 C14.42990499 244.99063958 10.76403869 244.99254041 7.09814453 244.99194336 C3.39431849 244.9918624 -0.30938307 244.99876375 -4.01318359 245.01245117 C-74.4593321 245.2688117 -74.4593321 245.2688117 -93.109375 236.80664062 C-93.439375 235.81664062 -93.769375 234.82664063 -94.109375 233.80664062 C-91.38643094 230.07322905 -87.37582281 229.62803702 -83.109375 228.74414062 C-82.29960205 228.57350098 -81.4898291 228.40286133 -80.65551758 228.22705078 C-59.8118695 224.01763688 -38.29011786 223.84587878 -17.109375 222.80664062 C-18.81528809 222.32831787 -18.81528809 222.32831787 -20.55566406 221.84033203 C-22.07887309 221.40496181 -23.60197965 220.96923294 -25.125 220.53320312 C-26.24382568 220.22104858 -26.24382568 220.22104858 -27.38525391 219.90258789 C-48.47811926 213.82207133 -64.56656317 199.3373135 -75.24023438 180.39672852 C-85.92083162 160.5617128 -90.84593027 136.68213417 -85.796875 114.43164062 C-78.11107644 89.90135671 -63.25227571 68.49494476 -47.109375 48.80664062 C-46.36429688 47.86949219 -45.61921875 46.93234375 -44.8515625 45.96679688 C-40.30163515 40.28346469 -35.51107115 34.87964433 -30.53344727 29.57202148 C-27.89159308 26.75449413 -25.3110391 23.90084235 -22.78515625 20.97851562 C-18.81208857 16.41940956 -14.65625626 12.06030976 -10.421875 7.74414062 C-9.67615234 6.96103516 -8.93042969 6.17792969 -8.16210938 5.37109375 C-7.07833008 4.26991211 -7.07833008 4.26991211 -5.97265625 3.14648438 C-5.32594971 2.4799585 -4.67924316 1.81343262 -4.01293945 1.12670898 C-2.109375 -0.19335938 -2.109375 -0.19335938 0 0 Z " fill="#C20C20" transform="translate(127.109375,6.193359375)"/>
<path d="M0 0 C4.17239687 1.72338131 6.46956638 4.2947222 9 8 C10.37566 11.80747186 10.11154736 15.75829925 10.0625 19.75 C10.05798828 20.44738281 10.05347656 21.14476563 10.04882812 21.86328125 C10.0371002 23.57555803 10.01916653 25.28779033 10 27 C10.97839844 26.95359375 11.95679688 26.9071875 12.96484375 26.859375 C28.02458495 26.44475086 28.02458495 26.44475086 34 31 C36.88063247 34.17971453 37.91292017 37.29092139 38.4375 41.5625 C37.75294111 46.94117699 36.12907799 50.47936824 31.875 53.875 C25.4567116 57.66542315 17.16878119 56.3665854 10 56 C10.05220703 57.73636719 10.05220703 57.73636719 10.10546875 59.5078125 C10.13362207 61.0468604 10.16092056 62.58592411 10.1875 64.125 C10.21263672 64.88554687 10.23777344 65.64609375 10.26367188 66.4296875 C10.32781372 71.38999044 9.7341666 74.69417469 7 79 C3.34834606 82.3777799 0.74146732 83.83255122 -4.25 84.3125 C-9.06700781 83.91108268 -11.0666205 82.7987508 -15 80 C-18.81479434 75.41872273 -18.35201232 70.84419294 -18.1875 65.1875 C-18.16719727 63.86202148 -18.16719727 63.86202148 -18.14648438 62.50976562 C-18.11129217 60.33957977 -18.05748985 58.16970967 -18 56 C-19.21816406 56.04640625 -20.43632813 56.0928125 -21.69140625 56.140625 C-23.31507948 56.17816658 -24.93877945 56.21456417 -26.5625 56.25 C-27.76229492 56.30027344 -27.76229492 56.30027344 -28.98632812 56.3515625 C-34.87257395 56.44766447 -38.15804721 55.37563976 -43 52 C-46.60019069 48.16753895 -46.61203635 43.78128811 -46.49609375 38.734375 C-45.7051922 34.37507512 -43.35733934 31.76589096 -40 29 C-37.59940183 27.79970092 -36.10639351 27.88540257 -33.4296875 27.90234375 C-32.53378906 27.90556641 -31.63789062 27.90878906 -30.71484375 27.91210938 C-29.77769531 27.92048828 -28.84054688 27.92886719 -27.875 27.9375 C-26.93011719 27.94201172 -25.98523438 27.94652344 -25.01171875 27.95117188 C-22.67441613 27.96297643 -20.33723939 27.97944241 -18 28 C-18.04713135 27.14619751 -18.04713135 27.14619751 -18.09521484 26.27514648 C-18.22095382 23.6630121 -18.29827838 21.05151506 -18.375 18.4375 C-18.42527344 17.54224609 -18.47554687 16.64699219 -18.52734375 15.72460938 C-18.63588597 10.78593817 -18.34682352 7.76994542 -15.1015625 3.91015625 C-10.58280643 -0.72462379 -6.24738542 -0.5428218 0 0 Z " fill="#EDEBEB" transform="translate(131,91)"/>
<path d="M0 0 C1.66122971 -0.0032302 3.32245917 -0.00659543 4.98368835 -0.01008606 C8.44689591 -0.01602298 11.91007874 -0.01793184 15.37329102 -0.01733398 C18.86260201 -0.01725312 22.35178061 -0.0241416 25.84106445 -0.0378418 C98.50842876 -0.31869958 98.50842876 -0.31869958 115.32421875 8.16796875 C115.65421875 9.15796875 115.98421875 10.14796875 116.32421875 11.16796875 C110.54717226 17.95517038 98.36182718 17.88246995 90.07421875 18.79296875 C88.54861328 18.97472656 88.54861328 18.97472656 86.9921875 19.16015625 C72.58027673 20.81960029 58.29082263 21.32955424 43.80078125 21.3359375 C42.04365006 21.33916523 40.28651911 21.34253032 38.52938843 21.34602356 C34.86349874 21.3519677 31.19763244 21.35386853 27.53173828 21.35327148 C23.82791224 21.35319053 20.12421068 21.36009187 16.42041016 21.3737793 C-54.02573835 21.63013983 -54.02573835 21.63013983 -72.67578125 13.16796875 C-73.00578125 12.17796875 -73.33578125 11.18796875 -73.67578125 10.16796875 C-70.95236968 6.43391617 -66.94239771 5.99091609 -62.67578125 5.10546875 C-61.88123535 4.9355542 -61.08668945 4.76563965 -60.26806641 4.59057617 C-40.51103345 0.55667109 -20.10489934 0.00942423 0 0 Z " fill="#F5F6F6" transform="translate(106.67578125,229.83203125)"/>
<path d="M0 0 C0.92065247 0.00015106 1.84130493 0.00030212 2.78985596 0.00045776 C3.77540466 0.01078033 4.76095337 0.02110291 5.77636719 0.03173828 C7.2994046 0.03598312 7.2994046 0.03598312 8.85321045 0.04031372 C12.09334135 0.05150077 15.33319495 0.07660287 18.57324219 0.10205078 C20.77115486 0.11208248 22.96907187 0.121208 25.16699219 0.12939453 C30.55250333 0.15143527 35.93785294 0.18489827 41.32324219 0.22705078 C41.32324219 0.88705078 41.32324219 1.54705078 41.32324219 2.22705078 C37.69324219 2.88705078 34.06324219 3.54705078 30.32324219 4.22705078 C34.61324219 4.55705078 38.90324219 4.88705078 43.32324219 5.22705078 C43.32324219 5.55705078 43.32324219 5.88705078 43.32324219 6.22705078 C34.22541552 7.16065198 25.21467828 7.37936583 16.07324219 7.35205078 C14.76355469 7.35591797 13.45386719 7.35978516 12.10449219 7.36376953 C5.75204579 7.35733993 -0.39976377 7.23073257 -6.67675781 6.22705078 C-6.67675781 5.89705078 -6.67675781 5.56705078 -6.67675781 5.22705078 C-2.71675781 5.22705078 1.24324219 5.22705078 5.32324219 5.22705078 C5.32324219 4.56705078 5.32324219 3.90705078 5.32324219 3.22705078 C-1.60675781 2.73205078 -1.60675781 2.73205078 -8.67675781 2.22705078 C-4.9611715 0.36925762 -3.87546104 -0.02129374 0 0 Z " fill="#C0C1C2" transform="translate(108.6767578125,236.77294921875)"/>
<path d="M0 0 C0 0.99 0 1.98 0 3 C-4.15626368 4.00926479 -8.04365094 4.10239579 -12.3125 4.0625 C-13.56675781 4.05347656 -14.82101563 4.04445312 -16.11328125 4.03515625 C-17.06589844 4.02355469 -18.01851563 4.01195312 -19 4 C-19 3.34 -19 2.68 -19 2 C-25.36811855 2.11846397 -31.7360911 2.24326755 -38.10400391 2.37231445 C-40.26673624 2.41541413 -42.42949716 2.45710478 -44.59228516 2.49731445 C-47.71525661 2.5556272 -50.83808745 2.6191402 -53.9609375 2.68359375 C-55.39280899 2.70866249 -55.39280899 2.70866249 -56.85360718 2.73423767 C-62.2562234 2.8513388 -67.54573611 3.20395082 -72.90762329 3.89002991 C-75 4 -75 4 -78 3 C-78.99 3 -79.98 3 -81 3 C-81.66 3 -82.32 3 -83 3 C-82.67 2.01 -82.34 1.02 -82 0 C-54.73517998 -1.69836476 -27.26696439 -1.59890053 0 0 Z " fill="#E6E6E7" transform="translate(169,235)"/>
<path d="M0 0 C-9.92611998 3.30870666 -21.55363736 2.15964035 -31.9375 2.125 C-33.08480087 2.12367065 -33.08480087 2.12367065 -34.25527954 2.12231445 C-46.52561244 2.10564172 -58.75291593 1.79655831 -71 1 C-71 0.34 -71 -0.32 -71 -1 C-70.11915741 -0.99666908 -70.11915741 -0.99666908 -69.22052002 -0.99327087 C-63.05505996 -0.97098079 -56.88961153 -0.95599543 -50.72412109 -0.94506836 C-48.42952 -0.94006958 -46.13492205 -0.93326836 -43.84033203 -0.92456055 C-40.5237551 -0.9122983 -37.20722063 -0.90672698 -33.890625 -0.90234375 C-32.88074524 -0.89718246 -31.87086548 -0.89202118 -30.8303833 -0.88670349 C-24.71432447 -0.88623216 -18.69361022 -1.19659024 -12.60369873 -1.76637268 C-3.83038959 -2.55359306 -3.83038959 -2.55359306 0 0 Z " fill="#D8D9DA" transform="translate(162,244)"/>
<path d="M0 0 C0.92065247 0.00015106 1.84130493 0.00030212 2.78985596 0.00045776 C3.77540466 0.01078033 4.76095337 0.02110291 5.77636719 0.03173828 C7.2994046 0.03598312 7.2994046 0.03598312 8.85321045 0.04031372 C12.09334135 0.05150077 15.33319495 0.07660287 18.57324219 0.10205078 C20.77115486 0.11208248 22.96907187 0.121208 25.16699219 0.12939453 C30.55250333 0.15143527 35.93785294 0.18489827 41.32324219 0.22705078 C41.32324219 0.88705078 41.32324219 1.54705078 41.32324219 2.22705078 C36.42134156 3.02302174 31.75402371 3.35548113 26.77246094 3.35986328 C25.72418877 3.36129837 25.72418877 3.36129837 24.65473938 3.36276245 C23.18494577 3.36343868 21.71514908 3.36162358 20.24536133 3.35742188 C18.02711062 3.35209012 15.80906462 3.35737335 13.59082031 3.36376953 C6.10940351 3.36691655 -1.24151609 3.15186861 -8.67675781 2.22705078 C-5.64714788 0.47814107 -3.48509106 -0.01914885 0 0 Z " fill="#C5C6C8" transform="translate(108.6767578125,236.77294921875)"/>
<path d="M0 0 C-1.75194248 2.2020481 -2.70146902 2.9394738 -5.50090027 3.50704956 C-6.95874687 3.59226364 -6.95874687 3.59226364 -8.44604492 3.67919922 C-10.05592789 3.77560699 -10.05592789 3.77560699 -11.69833374 3.8739624 C-16.75582434 4.06702673 -21.80229076 4.14295775 -26.86328125 4.1328125 C-27.93950241 4.13376923 -29.01572357 4.13472595 -30.1245575 4.13571167 C-32.37739115 4.13638655 -34.63022682 4.13458108 -36.88305664 4.13037109 C-40.3211706 4.12498642 -43.75915551 4.13035324 -47.19726562 4.13671875 C-49.39843779 4.13605836 -51.59960987 4.13477801 -53.80078125 4.1328125 C-54.82069656 4.13483673 -55.84061188 4.13686096 -56.89143372 4.13894653 C-62.0364408 4.1220841 -66.92999612 3.89031196 -72 3 C-72 2.67 -72 2.34 -72 2 C-71.38771545 2.00222061 -70.77543091 2.00444122 -70.14459229 2.00672913 C-63.71961048 2.02900864 -57.29463982 2.04400029 -50.86962891 2.05493164 C-48.4780228 2.0599323 -46.08641971 2.06673498 -43.69482422 2.07543945 C-40.2392502 2.08769326 -36.78371693 2.09327114 -33.328125 2.09765625 C-32.27449768 2.10281754 -31.22087036 2.10797882 -30.13531494 2.11329651 C-19.99437786 2.11404733 -9.92227243 -0.22049494 0 0 Z " fill="#E9E9E9" transform="translate(168,243)"/>
<path d="M0 0 C9.9 0 19.8 0 30 0 C25.8198485 3.13511362 25.22018847 3.37053492 20.359375 3.29296875 C18.75449219 3.2784668 18.75449219 3.2784668 17.1171875 3.26367188 C16.00601563 3.23853516 14.89484375 3.21339844 13.75 3.1875 C12.06003906 3.16719727 12.06003906 3.16719727 10.3359375 3.14648438 C7.55680736 3.11115645 4.77864637 3.0618252 2 3 C2 2.34 2 1.68 2 1 C1.34 0.67 0.68 0.34 0 0 Z " fill="#A7A9AB" transform="translate(112,239)"/>
<path d="M0 0 C6.67113423 -0.02548153 13.34225576 -0.0429219 20.01342773 -0.05493164 C22.28003407 -0.05994161 24.5466372 -0.06675141 26.81323242 -0.07543945 C30.0825276 -0.08765172 33.35177982 -0.09326182 36.62109375 -0.09765625 C38.12632851 -0.10539818 38.12632851 -0.10539818 39.66197205 -0.11329651 C45.52508433 -0.11375766 51.18486932 0.24196086 57 1 C56.67 1.66 56.34 2.32 56 3 C51.71 3 47.42 3 43 3 C43 2.34 43 1.68 43 1 C28.81 1 14.62 1 0 1 C0 0.67 0 0.34 0 0 Z " fill="#D8D9DA" transform="translate(107,236)"/>
<path d="M0 0 C-1.08183897 2.52429092 -1.94182148 3.9506364 -4.0625 5.75 C-6.61664331 8.7161019 -6.4174767 10.39803592 -6.25 14.25 C-6.21390625 15.32765625 -6.1778125 16.4053125 -6.140625 17.515625 C-6.09421875 18.33546875 -6.0478125 19.1553125 -6 20 C-8.53722054 17.46277946 -8.38319839 16.34088191 -8.5 12.8125 C-8.43018884 7.50685163 -7.15473777 4.9059735 -3.5078125 1.14453125 C-2 0 -2 0 0 0 Z " fill="#D9D3D3" transform="translate(93,120)"/>
<path d="M0 0 C5.94 0 11.88 0 18 0 C18 0.33 18 0.66 18 1 C15.72954771 1.33591896 13.45862367 1.66865065 11.1875 2 C9.29064453 2.2784375 9.29064453 2.2784375 7.35546875 2.5625 C4.5143719 2.93293405 1.85433426 3 -1 3 C-0.67 2.01 -0.34 1.02 0 0 Z " fill="#E9EAEA" transform="translate(87,235)"/>
</svg>
