<?xml version="1.0" encoding="UTF-8"?>
<svg version="1.1" xmlns="http://www.w3.org/2000/svg" width="512" height="512">
<path d="M0 0 C7.20119509 7.69873221 9.79708541 15.14096186 9.74872589 25.60623169 C9.40935663 32.12755474 8.17956604 38.55004575 7.09277344 44.98046875 C6.82168425 46.62071187 6.55130845 48.26107302 6.28158188 49.90154076 C5.54283949 54.38198387 4.79415552 58.86071608 4.04381371 63.33922911 C3.23865437 68.15596717 2.44292461 72.97426337 1.64611816 77.79238892 C0.2711602 86.09887344 -1.10947057 94.40439835 -2.49401855 102.70928955 C-4.67355608 115.78323092 -6.84201908 128.85899607 -9.00878906 141.93505859 C-9.74448371 146.37400687 -10.48027665 150.81293885 -11.21612549 155.25186157 C-11.39927047 156.35668235 -11.58241546 157.46150313 -11.7711103 158.59980333 C-13.08081369 166.49948983 -14.39216669 174.39890148 -15.70428467 182.29818726 C-20.70252157 212.39048607 -25.67878684 242.48632889 -30.6328125 272.5859375 C-30.79468772 273.56939872 -30.95656294 274.55285994 -31.12334347 275.56612301 C-32.86337141 286.13773592 -34.60273706 296.70945771 -36.3416748 307.28125 C-38.83586732 322.44454371 -41.33209974 337.60750151 -43.82910824 352.77033174 C-44.47952153 356.71996357 -45.12982971 360.66961262 -45.77983093 364.61931229 C-45.96190645 365.72564508 -45.96190645 365.72564508 -46.14766026 366.85432804 C-46.3867751 368.30729706 -46.62586734 369.76026981 -46.86493587 371.21324646 C-47.42826049 374.63609843 -47.99240495 378.05881097 -48.55856323 381.48119545 C-49.57066471 387.60152802 -50.5751169 393.72278617 -51.5567627 399.8480835 C-51.73564152 400.95228827 -51.91452034 402.05649303 -52.09881973 403.19415855 C-52.42665542 405.2186463 -52.75038455 407.24380588 -53.06887436 409.26978493 C-55.27669356 422.81500467 -60.94145786 435.25282868 -72.2265625 443.671875 C-81.5114881 449.63769006 -91.17216358 451.88840636 -102.10939026 451.87481689 C-102.86488519 451.87778802 -103.62038012 451.88075914 -104.39876884 451.8838203 C-106.92023552 451.89246406 -109.44165447 451.89401188 -111.96313477 451.89550781 C-113.77541708 451.90013914 -115.58769842 451.90516423 -117.39997864 451.91055298 C-122.31769439 451.92365086 -127.2353965 451.93011714 -132.15312696 451.93456364 C-135.22974597 451.93749931 -138.30636129 451.94160511 -141.38297844 451.94606781 C-151.02106285 451.95973747 -160.65913878 451.96940605 -170.29723221 451.9732697 C-181.40004521 451.97774565 -192.5027348 451.99527428 -203.60551029 452.0242703 C-212.2019442 452.04593645 -220.79834352 452.05597665 -229.39480442 452.05731082 C-234.52209183 452.05835555 -239.64926316 452.0641922 -244.77652168 452.08213043 C-249.60532722 452.09869601 -254.43393048 452.1007257 -259.26275444 452.09199142 C-261.0262799 452.0912255 -262.78981662 452.09550442 -264.55331421 452.10544968 C-278.83072836 452.18118668 -291.40243342 451.28910536 -303.4140625 442.734375 C-304.4865625 441.97125 -305.5590625 441.208125 -306.6640625 440.421875 C-319.67361751 427.7079917 -321.83570189 410.66466408 -324.5390625 393.55859375 C-324.9210448 391.21315788 -325.30438798 388.8679433 -325.6889801 386.52293396 C-326.62089296 380.82120995 -327.53951914 375.1174605 -328.45259398 369.41269225 C-329.53356486 362.664613 -330.63204304 355.91941794 -331.73220599 349.17444515 C-332.29989952 345.69394366 -332.86700708 342.21334677 -333.43397522 338.73272705 C-333.54747753 338.03595541 -333.66097984 337.33918377 -333.77792162 336.62129784 C-334.59299989 331.61551499 -335.40501661 326.60924101 -336.21556091 321.60272217 C-339.35175613 302.23312618 -342.52367362 282.8697505 -345.73046875 263.51171875 C-345.83902278 262.85633409 -345.9475768 262.20094943 -346.05942035 261.52570462 C-347.04402297 255.5814587 -348.02908209 249.63728852 -349.01479626 243.69322681 C-351.19574976 230.54148882 -353.37023921 217.38868585 -355.54423332 204.23579597 C-356.62690638 197.68580367 -357.70994334 191.13587155 -358.79296875 184.5859375 C-359.00771567 183.28714944 -359.2224626 181.98836138 -359.443717 180.6502161 C-361.11561067 170.53871991 -362.78795386 160.42729809 -364.46037781 150.3158896 C-366.33733338 138.96782347 -368.2137801 127.61967329 -370.08979702 116.27145195 C-371.1244005 110.01312696 -372.1592165 103.75483731 -373.1946106 97.49664307 C-374.15411911 91.69709442 -375.1130065 85.89744341 -376.07144165 80.09771729 C-376.41786407 78.00207839 -376.76450033 75.90647483 -377.11138916 73.81091309 C-377.89965214 69.04865087 -378.68494194 64.28594744 -379.46316528 59.52203369 C-380.14072551 55.37637583 -380.83691456 51.23419554 -381.53952026 47.0927124 C-381.91060329 44.86637021 -382.2814681 42.63999163 -382.65209961 40.41357422 C-382.82820298 39.39419832 -383.00430635 38.37482243 -383.18574619 37.32455635 C-385.10049594 25.69906277 -385.79474132 14.51308371 -378.6640625 4.484375 C-353.12117543 -26.61674422 -295.62912458 -29.3996125 -258.4140625 -33.265625 C-189.62387751 -39.93846038 -54.99643817 -51.61478016 0 0 Z M-284.81878662 -6.56768799 C-287.21554405 -6.28873047 -289.61280138 -6.01460514 -292.01025391 -5.74169922 C-307.29885358 -3.98411668 -321.94719579 -1.64731215 -336.4140625 3.734375 C-337.16026855 4.0118457 -337.90647461 4.28931641 -338.67529297 4.57519531 C-346.92692868 7.73017947 -354.30612447 11.12413943 -360.4140625 17.734375 C-359.94663953 21.31237934 -359.94663953 21.31237934 -358.09375 24.32421875 C-329.41644137 45.73909208 -283.23497636 48.75897538 -248.7265625 51.859375 C-247.88585205 51.93502686 -247.0451416 52.01067871 -246.17895508 52.08862305 C-243.25869773 52.33232203 -240.33801373 52.53953104 -237.4140625 52.734375 C-236.44839859 52.79952805 -236.44839859 52.79952805 -235.46322632 52.86599731 C-220.54804932 53.83586195 -205.63342341 53.92201834 -190.69165039 53.91967773 C-187.9845503 53.91959707 -185.27762161 53.92646287 -182.57055664 53.94018555 C-128.62887178 54.20895141 -71.20176907 51.20687155 -21.4140625 28.734375 C-20.66930664 28.40872559 -19.92455078 28.08307617 -19.15722656 27.74755859 C-18.44018555 27.4170752 -17.72314453 27.0865918 -16.984375 26.74609375 C-16.34516113 26.45565186 -15.70594727 26.16520996 -15.04736328 25.8659668 C-13.00118025 24.44831981 -12.3551386 23.0048468 -11.4140625 20.734375 C-17.88980802 13.65152834 -25.51630607 9.9666818 -34.4765625 6.796875 C-35.43554443 6.45551514 -36.39452637 6.11415527 -37.38256836 5.76245117 C-115.2887963 -21.33895044 -204.17704484 -15.97430396 -284.81878662 -6.56768799 Z M-354.4140625 55.734375 C-351.86878058 68.31444957 -349.3227371 80.89436386 -346.76025391 93.47094727 C-346.61233839 94.19694783 -346.46442287 94.9229484 -346.31202507 95.67094898 C-345.71028444 98.62411142 -345.10846956 101.57725865 -344.50631332 104.53033638 C-342.7003871 113.38769778 -340.90692328 122.24729887 -339.13565063 131.11166382 C-338.2383594 135.59206899 -337.33070299 140.07032841 -336.42034912 144.5480957 C-335.99978306 146.62917189 -335.58396214 148.7112127 -335.1729126 150.79418945 C-334.6065698 153.66097843 -334.02413371 156.52402455 -333.4375 159.38671875 C-333.2755011 160.22839096 -333.1135022 161.07006317 -332.94659424 161.9372406 C-332.45359113 164.45309978 -332.45359113 164.45309978 -331.4140625 167.734375 C-327.31156597 169.10187384 -325.90423456 167.80838878 -322.0390625 165.984375 C-298.74327893 155.45407179 -279.9826876 162.29310324 -256.94091797 169.93408203 C-241.29164435 174.89044135 -226.46011784 170.6811039 -211.4140625 165.734375 C-209.14317903 165.008253 -206.8704921 164.28833932 -204.59619141 163.57299805 C-202.67981641 162.96642647 -200.76932396 162.34135567 -198.859375 161.71484375 C-179.51505966 156.20982884 -161.21463573 163.87425711 -142.94091797 169.93408203 C-125.53314796 175.44738349 -108.98902514 169.66539025 -92.4765625 164.046875 C-76.87128151 158.7673936 -66.32883024 160.12466998 -50.8515625 165.296875 C-49.54388354 165.72671467 -48.23594235 166.15575744 -46.92773438 166.58398438 C-43.75385058 167.62632998 -40.58284004 168.67662858 -37.4140625 169.734375 C-34.93373792 155.31410443 -32.45626155 140.89334696 -29.98218536 126.47200298 C-28.83339159 119.77610495 -27.68366241 113.08037004 -26.53173828 106.38500977 C-25.42073245 99.92746439 -24.3123239 93.46947674 -23.20552063 87.01120949 C-22.7821561 84.54342595 -22.3579113 82.07579326 -21.93278503 79.60831261 C-21.33894876 76.16073459 -20.74820304 72.7126406 -20.15820312 69.2644043 C-19.89170708 67.72368507 -19.89170708 67.72368507 -19.61982727 66.15184021 C-19.45995834 65.21374512 -19.30008942 64.27565002 -19.13537598 63.30912781 C-18.99526344 62.49334102 -18.85515091 61.67755423 -18.71079254 60.83704662 C-18.34419454 58.59319822 -18.34419454 58.59319822 -18.4140625 55.734375 C-22.93556408 57.07126129 -27.44934901 58.42034449 -31.93310547 59.87988281 C-41.37220773 62.95136353 -50.81024233 65.34566072 -60.5390625 67.296875 C-61.26373718 67.44434174 -61.98841187 67.59180847 -62.73504639 67.7437439 C-85.73907857 72.40257841 -108.99384232 75.23566668 -132.4140625 76.734375 C-133.64503662 76.82195068 -134.87601074 76.90952637 -136.14428711 76.99975586 C-151.07880878 77.98151075 -166.03728067 77.92176661 -180.99682617 77.91967773 C-184.04343686 77.9195971 -187.08989517 77.92645444 -190.13647461 77.94018555 C-216.89107468 78.0587038 -243.57423181 77.26972424 -270.1640625 74.046875 C-270.83744659 73.96678192 -271.51083069 73.88668884 -272.20462036 73.8041687 C-297.9903425 70.6981031 -326.8482579 67.03867827 -350.69921875 56.43359375 C-352.41407074 55.60852004 -352.41407074 55.60852004 -354.4140625 55.734375 Z " fill="#000000" transform="translate(443.4140625,48.265625)"/>
</svg>
